<svg width="100" height="28" viewBox="0 0 100 28" xmlns="http://www.w3.org/2000/svg">
  <path style="fill:#2799f6;fill-opacity:1;stroke-width:.194086" d="M8.277.51c-1.9.081-3.831.682-5.257 1.98C1.37 3.93.59 6.112.352 8.236v.675a7.548 7.548 0 0 0 2.152 4.878c3.847 3.902 7.733 7.766 11.618 11.629.73.719 1.405 1.516 2.296 2.046h.664c.981-.339 1.585-1.237 2.324-1.908 2.86-2.916 5.843-5.71 8.633-8.692l-8.372-8.402c.944-.947 1.88-1.905 2.84-2.833.781-.775 1.871-1.222 2.977-1.132 2.246.03 4.105 2.327 3.693 4.534-.242 1.917-2.046 2.958-3.172 4.338l2.828 2.696c.942-.774 1.825-1.724 2.627-2.643 2.237-2.636 2.35-6.78.304-9.558C30.426 1.914 28.161.702 25.818.51h-1.161c-1.735.196-3.444.853-4.734 2.05-3.882 3.786-7.681 7.656-11.568 11.437-.9-.887-1.795-1.779-2.69-2.67-.95-.945-1.454-2.345-1.175-3.675.38-1.974 2.414-3.458 4.416-3.126 1.93.205 2.967 2.057 4.358 3.17l2.797-2.656C14.322 2.819 11.975.676 9.005.51Zm35.546 3.078c-.651.003-1.297.068-1.918.297-1.096.378-2.032 1.226-2.453 2.313-.413 1.014-.26 2.131-.288 3.198h-1.95l.01 2.677 1.94-.011v8.867l3.633-.016c-.014-8.874-.004-5.916-.014-8.874l2.569.009.004-2.663-2.578.007c.04-.878-.22-1.926.45-2.636.688-.673 1.72-.45 2.547-.205.005-.96.005-1.924 0-2.884-.644-.022-1.3-.082-1.952-.08Zm38.744.284v17.095h3.55V3.872Zm-16.38 5.19c-1.479.008-2.826.905-3.684 2.074.005-.579.007-1.16.01-1.738h-3.604l.012 11.57 3.626-.007s-.009-4.432-.002-6.646c-.032-.945.46-1.98 1.389-2.313.65-.284 1.456-.125 1.986.336.497.532.562 1.3.608 1.99.083 2.212.048 6.643.048 6.643l3.606-.017c-.007-1.9.048-3.8-.065-5.699-.014-1.544.148-3.21-.663-4.598-.58-1.056-1.848-1.456-2.97-1.585a3.299 3.299 0 0 0-.297-.01zm-14.393.033c-1.491.004-3.002.407-4.36.96l-.013 2.716c1.442-.87 3.172-1.463 4.863-1.08.762.216 1.175.995 1.09 1.755-1.62.242-3.277.367-4.84.864-2.187.742-3 3.737-1.667 5.561.945 1.378 2.873 1.66 4.38 1.198.92-.25 1.583-.97 2.175-1.672l-.014 1.571 3.4.005c-.018-2.528.034-5.055-.028-7.58-.025-1.58-.831-3.218-2.361-3.82-.843-.339-1.731-.48-2.626-.478Zm25.35.006a7.768 7.768 0 0 0-2.435.355c-.936.327-1.903.862-2.334 1.806-.686 1.355-.415 3.23.862 4.142 1.228.788 2.718 1.042 3.96 1.8.546.35.288 1.172-.265 1.363-1.647.661-3.403-.018-4.891-.764l.01 2.92c1.919.577 3.996.763 5.95.247 1.065-.288 2.11-.917 2.61-1.937.659-1.2.516-2.862-.532-3.797-1.17-1.067-2.801-1.304-4.158-2.025-.72-.44-.277-1.49.472-1.56a7.406 7.406 0 0 1 3.9.662l-.007-2.763c-1.02-.261-2.083-.444-3.141-.449Zm22.496.28-3.552.001-2.566 8.26-2.493-8.205-4.03-.007 4.638 11.552c-.233.838-.525 1.746-1.203 2.338-.81.663-1.886.219-2.794.06l-.002 2.769c1.24.253 2.57.475 3.78-.034 1.726-.627 2.79-2.297 3.385-3.952 1.633-4.213 3.202-8.568 4.837-12.782zm-82.773 3.542c1.89.02 3.706 1.52 3.901 3.444.376 2.392-1.905 4.744-4.313 4.417-2.35-.083-4.066-2.654-3.478-4.875.338-1.463 1.598-2.65 3.08-2.9a3.53 3.53 0 0 1 .81-.086zm-.042 1.375a2.538 2.538 0 0 0-2.538 2.538 2.538 2.538 0 0 0 2.538 2.539 2.538 2.538 0 0 0 2.539-2.539 2.538 2.538 0 0 0-.248-1.093 1.084 1.084 0 0 1-.623.2 1.084 1.084 0 0 1-1.084-1.084 1.084 1.084 0 0 1 .11-.465 2.538 2.538 0 0 0-.694-.096zm36.7 1.203c-.172.88-.128 1.908-.815 2.585-.73.767-2.22.915-2.884-.011-.413-.662-.238-1.777.571-2.053 1.016-.302 2.08-.39 3.128-.521z"/>
</svg>
