<svg version="1.0" xmlns="http://www.w3.org/2000/svg" width="272" height="256" viewBox="0 0 204 192">
  <path d="M0 96v96h204V0H0v96zm31.6-21.8-.1 6.3 3.2.3c2.9.3 3.2.1 3.5-3 .2-2.8.7-3.4 3.1-3.6 2.3-.3 2.7-.8 2.7-3.3V68h19.5l-.2 7.3c-.1 3.9-.2 8.2-.2 9.4-.1 1.9-.7 2.3-3.1 2.3-2.7 0-3 .3-3 3s-.3 3-3 3c-2.8 0-3 .3-3 3.5s.2 3.5 3 3.5c2.7 0 3 .3 3 2.9s.4 3 3.3 3.3l3.2.3v18l-3 .5c-1.6.3-6 .4-9.7.2-6.8-.4-6.8-.4-6.8-3.3 0-2.6-.4-2.9-3-2.9-2.7 0-3-.3-3-3.1s-.2-3-3.2-2.7l-3.3.3.1 5.7v5.8H12V68h19.6v6.2zM89 96.5V125H70V68h19v28.5zm45-19V87h-19v18.9l9.3.3 9.2.3.3 9.2.3 9.3H102v-3c0-2.7-.3-3-3-3h-3V74h3c2.7 0 3-.3 3-3v-3h32v9.5zm26-3V81h2.9c2.6 0 3-.4 3.3-3.3.3-2.8.7-3.2 3.6-3.5 3-.3 3.2-.6 2.7-3.3L172 68h20v19h-3.5c-3.2 0-3.5.2-3.5 2.9 0 2.5-.4 3-2.7 3.3-2.3.2-2.9.8-3.1 3.5-.3 3.1-.1 3.3 2.7 3.3s3.1.3 3.1 2.9.4 3 3.3 3.3l3.2.3.3 9.2.3 9.2-8.7.3c-4.7.2-9.1 0-9.6-.3-.6-.4-1.1-1.7-1.2-3-.1-1.8-.8-2.5-3.1-2.9-2.4-.4-3.1-1.1-3.3-3.3-.3-2.3-.8-2.7-3.3-2.7-2.9 0-2.9 0-2.9 6v6h-9.4c-6.6 0-9.5-.4-9.8-1.3-.7-2-.9-47.9-.3-52l.7-3.7H160v6.5z"/>
</svg>
