<svg xmlns="http://www.w3.org/2000/svg" width="400" height="382.796" viewBox="0 0 400 382.796">
  <path d="M53.257 191.571v138.314h293.486V53.257H53.257v138.314m45.21-30.258v9.207l5.269-.107 5.268-.106.115-2.442c.07-1.485.333-2.659.671-2.997.305-.305.555-1.06.555-1.677 0-.985.137-1.122 1.122-1.122.617 0 1.381-.259 1.697-.575.316-.316 1.152-.574 1.858-.574 2.127 0 2.603-.946 2.603-5.177v-3.636h26.053v11.686c0 12.861-.066 13.218-2.463 13.218-.512 0-1.179.249-1.483.553-.306.306-1.475.606-2.614.671l-2.061.117-.114 2.204c-.064 1.211-.279 2.203-.479 2.203-.201 0-.364.689-.364 1.532v1.533h-1.533c-1.107 0-1.533.159-1.533.574 0 .447-.51.575-2.298.575h-2.299v5.173c0 4.342.092 5.172.574 5.172.317 0 .575.259.575.575 0 .466.617.574 3.257.574h3.257V200c0 .843.172 1.533.383 1.533.21 0 .383.915.383 2.035 0 2.976 1.098 3.712 5.54 3.712h3.272v24.904h-3.617c-1.998 0-3.723.171-3.854.383-.13.211-1.692.383-3.471.383-1.901 0-3.234-.158-3.234-.383 0-.237-2.044-.383-5.364-.383-4.513 0-5.364-.091-5.364-.575a.577.577 0 0 0-.575-.575c-.466 0-.574-.617-.574-3.256 0-2.528-.12-3.257-.534-3.257-.294 0-.633-.259-.754-.575-.169-.438-.886-.574-3.021-.574-3.682 0-4.121-.461-4.121-4.326 0-3.541-.523-4.103-3.813-4.103-1.249 0-2.378.172-2.508.383-.131.21-1.175.383-2.322.383h-2.085v16.475H71.648v-80.077h26.819v9.206m81.61 30.833v40.038h-24.521v-80.077h24.521v40.039m64.751-27.012v13.027h-27.213l.101 14.464.1 14.463 13.506.101 13.506.1v24.895h-44.445v-3.636c0-4.981-.184-5.176-4.874-5.176h-3.555v-62.427l4.119-.108 4.119-.109.108-4.31.108-4.311h44.42v13.027m37.547-3.831v9.195h4.79c3.838 0 4.789-.106 4.789-.534 0-.293.259-.633.575-.754.431-.165.578-.871.587-2.819.015-3.108.759-4.322 2.647-4.322.71 0 1.286-.234 1.416-.575.159-.412.804-.574 2.287-.574 1.582 0 2.067-.135 2.067-.575 0-.316.258-.575.574-.575.441 0 .575-.486.575-2.08 0-1.338-.205-2.285-.575-2.654-.316-.317-.574-1.105-.574-1.752v-1.177h27.203v26.054h-4.981c-4.002 0-4.981.105-4.981.534 0 .293-.259.633-.575.754-.445.171-.574.916-.574 3.298 0 2.837-.061 3.077-.779 3.077-.428 0-.877.258-.999.574-.154.403-.781.575-2.091.575-2.369 0-3.407.81-3.423 2.672-.007.743-.266 1.686-.575 2.095-.913 1.207-.734 4.493.312 5.71.822.956 1.074 1.017 4.214 1.017h3.341v3.078c0 2.381.129 3.127.574 3.297.316.122.575.461.575.755 0 .293.24.533.534.533.293 0 .633.259.754.575.175.455.98.575 3.872.575h3.652v10.548c0 9.023.083 10.58.575 10.769.39.15.575.761.575 1.904v1.683h-7.088c-4.47 0-7.089.141-7.089.383 0 .225-1.341.383-3.256.383-1.916 0-3.257-.158-3.257-.383 0-.211-.91-.383-2.022-.383-2.396 0-3.342-.809-3.342-2.859 0-.739-.239-1.452-.544-1.624-.299-.168-.601-.91-.671-1.647-.106-1.131-.287-1.36-1.152-1.46-.564-.065-1.231-.367-1.483-.67-.271-.327-1.143-.552-2.136-.552-.97 0-1.677-.179-1.677-.424 0-.233-.431-.763-.958-1.177-.791-.623-.958-1.084-.958-2.654 0-1.335-.17-1.965-.574-2.12-.316-.122-.575-.461-.575-.754 0-.294-.259-.534-.575-.534-.316 0-.574-.173-.574-.383 0-.227-1.404-.383-3.444-.383-5.208 0-4.986-.414-4.986 9.28v7.961h-11.877c-10.302 0-11.877-.076-11.877-.575 0-.382-.382-.575-1.139-.575h-1.14l-.205-12.547c-.501-30.509-.585-52.353-.205-52.733.231-.232.39-2.848.39-6.444 0-5.125.088-6.053.575-6.053a.576.576 0 0 0 .574-.575c0-.499 1.639-.575 12.452-.575h12.452v9.196" fill="#04bc04" fill-rule="evenodd"/>
</svg>
