<svg height="800" width="800" xmlns="http://www.w3.org/2000/svg" viewBox="0 0 512.001 512.001" xml:space="preserve">
  <path d="m309.322 273.422-27.309 27.309 11.619 140.68a20.367 20.367 0 0 1-3.672 13.44l-26.511 37.461a9.124 9.124 0 0 1-14.896 0l-26.511-37.461a20.355 20.355 0 0 1-3.672-13.44l11.619-140.68-27.309-27.309C102.29 297.506 27.449 388.01 27.449 495.678c0 9.015 7.308 16.323 16.323 16.323H468.23c9.015 0 16.323-7.308 16.323-16.323-.002-107.668-74.843-198.172-175.231-222.256zM256.653.008c-.134-.001-.265-.008-.397-.008l-.096.002-.158-.002c-68.8 0-124.773 55.973-124.773 124.773S187.2 249.547 256 249.547l.158-.002.096.002c.132 0 .265-.007.397-.008 68.501-.353 124.122-56.183 124.122-124.765S325.153.361 256.653.008zm-91.373 140.7h18.35c1.356 18.982 5.128 36.979 11.029 52.727-15.112-13.515-25.736-31.932-29.379-52.727zm18.401-32.645h-18.262c3.768-20.478 14.315-38.605 29.24-51.952-5.82 15.535-9.575 33.254-10.978 51.952zm55.997 99.599c-11.23-12.502-20.764-36.765-23.308-66.954h23.308v66.954zm0-99.599h-23.239c2.641-29.828 12.106-53.783 23.239-66.178v66.178zm106.904 0H328.83c-1.382-18.427-5.049-35.902-10.726-51.275 14.525 13.28 24.773 31.145 28.478 51.275zm-74.259-66.749c11.354 12.224 21.068 36.466 23.748 66.75h-23.748v-66.75zm0 166.92v-67.526h23.818c-2.583 30.645-12.368 55.198-23.818 67.526zm45.78-15.475c5.757-15.587 9.44-33.341 10.777-52.051h17.84c-3.581 20.446-13.904 38.6-28.617 52.051z"/>
</svg>
